<svg xmlns="http://www.w3.org/2000/svg" width="175" height="36" fill="none" viewBox="0 0 175 36"><path fill="#000" d="m7.27 35.2-.43.19q-.15.07-.22-.07a.2.2 0 0 1 0-.15l-.4.18q-.1.07-.17 0l-.58.25q-.15.08-.21-.07-.08-.15.07-.21l.57-.26-.57.15-.5.18q-.2.07-.22-.07a.2.2 0 0 1 0-.15l-.5.18q-.15.08-.22-.07v-.04l-.54.15q-.15.07-.18-.11l-.43.14q-.15.08-.22-.07v-.03l-.47.21q-.15.08-.21-.07-.08-.15.07-.22l.18-.07-.54.22q-.1.07-.18-.04-.15 0-.18-.14-.04-.15.1-.18l.58-.18.58-.22.18-.07q-.07-.07-.07-.1h-.11l-.58.24-.61.22-.5.14q-.19.08-.22-.07-.03-.18.1-.21l.51-.18.61-.18.65-.3-.1-.2-.11-.19-.62.18-.6.25H.93l-.58.15q-.18.07-.22-.11-.03-.15.11-.18l.61-.18.62-.22.72-.25q-.04-.14-.04-.32l-.47.21-.54.3-.61.2q-.15.08-.22-.06-.03-.15.11-.22l.58-.22.54-.28.57-.3h.04v-.28l-.5.14-.5.3-.66.28q-.14.03-.21-.1-.07-.16.1-.22l.62-.26.5-.28h.04l.61-.18v-.04l-.04-.36-.54.14-.57.26H.97l-.54.18q-.15.03-.21-.11-.05-.18.1-.22l.58-.14.58-.25.64-.22q0-.22-.03-.43l-.47.18-.61.21H.97l-.5.18q-.15.05-.22-.1-.04-.15.11-.22L.9 31l.61-.26.58-.18v-.4l-.43.19-.65.14-.61.29q-.15.07-.22-.07-.07-.18.1-.22l.62-.29h.04l.6-.18.51-.18h.04v-.03l.03-.25-.54.21-.6.18-.66.29q-.14.07-.21-.07t.1-.22l.62-.29h.03l.62-.21.64-.25v-.4l-.5.18-.54.29-.54.21q-.15.08-.22-.07t.08-.21l.54-.26.54-.25h.03v-.03l.61-.22v-.04q.04-.15.04-.28l-.58.21-.6.29H.93l-.5.14q-.16.08-.22-.1-.05-.15.1-.18l.5-.18.66-.26.68-.28v-.47l-.61.21-.54.22H.97l-.57.22q-.15.03-.22-.11-.03-.19.1-.22l.58-.21.58-.18.61-.26h.04l.1-.03v-.25l-.6.14-.51.22h-.04l-.6.18q-.2.03-.22-.15-.05-.14.1-.18l.65-.18.5-.18.73-.21v-.36l-.5.14-.55.25-.65.25q-.14.05-.21-.1-.04-.15.1-.22l.62-.22.57-.25.62-.21v-.22l-.04-.22-.58.26v.03l-.54.18-.57.29q-.15.07-.22-.07t.07-.22l.58-.29.58-.21.54-.25q.03-.04.18-.08 0-.24-.08-.36l-.6.26-.62.25-.65.25q-.15.07-.21-.1-.05-.15.1-.19l.62-.25.64-.29.62-.21h.03l.15-.08v-.32l-.54.22-.58.21-.54.22q-.15.07-.22-.07-.03-.18.11-.22l.5-.22.62-.25.61-.21v-.4l-.58.25-.6.18-.58.22q-.15.07-.22-.07-.03-.15.1-.22l.58-.25H.9l.58-.18.68-.25v-.33l-.58.25-.5.26-.54.21q-.15.08-.22-.07t.08-.22l.54-.25.5-.21.68-.33v-.36l-.43.15-.57.28h-.04l-.58.18q-.14.08-.21-.07-.04-.18.1-.21l.58-.22.58-.25h.03l.54-.18-.03-.5-.54.21-.65.18-.54.25q-.15.04-.22-.1-.06-.15.11-.22l.54-.22.04-.03.61-.15.58-.25h.07v-.32l-.36.1-.65.18-.54.26q-.15.03-.22-.11-.06-.15.11-.22l.54-.21h.04v-.04l.61-.14.43-.15v-.43l-.47.22v.03l-.6.18-.55.29q-.15.07-.21-.07-.08-.15.07-.22l.54-.29h.03l.62-.21.57-.25v-.36l-.47.21-.54.22-.64.25q-.15.07-.22-.1-.03-.15.1-.19l.62-.25.58-.25.57-.22v-.4l-.47.15-.64.18-.54.18q-.15.03-.22-.1-.03-.16.1-.22l.58-.15.62-.21.57-.18v-.26l-.4.18-.53.22h-.04l-.58.14q-.18.05-.21-.1-.04-.15.1-.18l.62-.18.54-.18.5-.3v-.35l-.43.25-.61.18-.5.14q-.15.08-.22-.1-.04-.15.1-.18l.55-.18.57-.15.5-.29.08-.03v-.4l-.4.18-.61.18-.54.18q-.15.08-.22-.07-.03-.15.11-.22l.54-.21h.04l.57-.15.5-.25h.04q0-.2.04-.4l-.47.15-.61.29-.65.25q-.15.07-.21-.07-.08-.15.1-.22l.62-.25.64-.29.62-.21v-.33l-.54.22-.5.21-.62.26q-.15.03-.22-.11-.03-.15.11-.22l.58-.21.54-.22.65-.29v-.21l-.04-.22-.58.22-.6.28-.62.26q-.15.03-.22-.11-.03-.15.11-.22l.58-.21.65-.3.57-.24h.04l.14-.04q0-.25-.07-.36l-.54.25v.04l-.54.18-.58.29q-.14.06-.21-.08-.08-.14.07-.21l.58-.29.57-.22.5-.25.04-.03.18-.04v-.32l-1.22.54-.61.25q-.15.07-.22-.11-.03-.15.1-.18l.58-.25.65-.29.76-.32q0-.22-.11-.33l-.58.22-.54.18-.54.25q-.14.07-.21-.07-.08-.15.07-.22l.54-.25.58-.22.57-.18.22-.07q0-.25-.07-.32l-.58.29-.58.25-.54.25q-.14.07-.21-.07-.08-.15.07-.22l.54-.25v-.04l.61-.21.54-.29.22-.1v-.19q0-.14-.04-.18H2.2l-.62.22-.54.21-.6.26q-.16.06-.22-.08-.08-.14.07-.21l.61-.29.58-.18.6-.22.22-.07q0-.15.04-.25l-.54.18-.5.25-.54.22q-.15.07-.22-.07-.03-.18.1-.22l.55-.22q-.04-.14.1-.21l.62-.29h.03l.58-.14q.11-.18.25-.33.36-.31.76-.36.43-.07.86-.07h.18a48 48 0 0 0 4.54-.22q.54-.07 1.08-.03.54 0 .97.4.29.32.4.71.6-.46 1.33-.75a4 4 0 0 1 1.51-.5q.97-.15 2.05-.08a9 9 0 0 1 2.05.29 4 4 0 0 1 1.48.61q.75.36 1.37.83v.04h.03a7 7 0 0 1 1.48 1.9q.65 1.12 1.04 2.2.47 1.11.58 2.63a26 26 0 0 1-.07 4.79q-.1 1.08-.47 2.05h-.04v.03q-.54 1.12-1.44 2.27a10 10 0 0 1-1.83 1.91v.04h-.04q-.72.46-1.69.72-.94.25-1.9.28l-.37.15-.61.29q-.15.06-.22-.08v-.03l-.36.14q-.14.08-.21-.07 0-.03-.07 0l-.65.18q-.15.03-.18-.14-.04-.15.1-.18l.62-.18.21-.08h-.1l-.22.04-.5.18-.54.25q-.15.08-.22-.07-.03-.04 0-.1l-.58.2q-.14.08-.21-.06-.04-.15.1-.22l.62-.25.43-.15-.25-.07-.29.11-.61.22-.61.21q-.15.08-.22-.07-.03-.19.1-.22l.62-.25.5-.14-.1-.04-.47.18v.04l-.65.14-.32.11.07 1.84.07 1.87v.83q0 .43-.07.82-.08.44-.43.76-.36.32-.76.32-.4.05-.8 0H9.5l-.36.15-.6.21-.55.15q-.15.07-.21-.11-.04-.15.14-.18l-.5.1a.2.2 0 0 1-.15 0m5.69-25.88-.4.18q-.5.33-.93.72l-.15.26-.03.07q-.07.15-.18.25a1 1 0 0 1-.33.1.5.5 0 0 1-.28-.06q-.12.04-.18-.08-.11-.1.1-.28 0-.04.04-.08-.14 0-.14-.14-.04-.15.18-.18-.04-.04-.04-.07-.03-.15.1-.18 0-.22-.03-.4a.6.6 0 0 0-.14-.4q-.22-.21-.65-.17-.4 0-.8.03l-.35.07q-2.13.18-4.18.18h-.25q-.26 0-.5.04a.7.7 0 0 0-.44.14 1 1 0 0 0-.21.47q-.04.26-.04.5v.26L3.1 12.7q0 1.08-.04 2.16v.03a33 33 0 0 0-.18 3.46l.1 3.5.08 2.58q.03 1.26-.04 2.56v.72q0 .36-.03.72 0 .87-.04 1.76 0 .9.07 1.8v.94q0 .26.04.5.04.14.1.26.09.15.12.28l.46.08.98.03q.5.05.97 0l.57-.03q.3 0 .54-.04l1.12-.07a16 16 0 0 1 1.98.1h.47q.25.04.43-.14.18-.15.18-.4.04-.24.04-.46v-.9q-.04-1.04-.11-2.13l-.07-2.08v-1.52l-.04-.32-.04-.36q0-.21.3-.32.28-.11.39.03t.21.33q.12.22.18.28.75.8 1.8 1.16.54.18 1.12.25t1.15.1q.97.04 2.16-.14a4.5 4.5 0 0 0 2.02-.75 13 13 0 0 0 3.02-3.85q.36-.9.47-1.91t.1-1.95q.04-1.11-.06-2.52a8 8 0 0 0-.5-2.48q-.37-.98-.94-1.98a7 7 0 0 0-1.37-1.77 7 7 0 0 0-1.26-.75l-.04-.04q-.03 0-.03-.03-.36-.3-1.23-.47a9 9 0 0 0-1.83-.25 9 9 0 0 0-1.84.03q-.83.11-1.22.43h-.04l-.04.04a1 1 0 0 0-.32.14m1.48 12.53-.11.04-.11.03-1.4-.1h-.04l-1.04-.22q-.4-.1-.76-.72a2 2 0 0 1-.29-.97l-.03-1.05a6 6 0 0 1 0-.93q0-.87.18-1.84.2-1 1.15-1.44.65-.29 1.4-.14.8.14 1.26.72.15.18.22.4a3 3 0 0 1 .36 1.29 13 13 0 0 1 .14 1.76q.04.44.04.87-.04.43-.11.9-.03.47-.25.83-.1.18-.29.32-.18.11-.32.25m.07-1.83q.04-.26-.11-.33l-.61.22-.65.25-.61.18q-.15.07-.22-.07-.04-.18.11-.22l.61-.21.65-.22.65-.22.21-.07q0-.26-.07-.36l-.54.18-.54.18-.57.29q-.15.07-.22-.07t.07-.22l.58-.29h.03l.58-.21.5-.15.18-.1-.03-.22-.11-.25-.5.29-.58.25-.5.29q-.15.06-.22-.08t.07-.21l.5-.29.58-.25.5-.29h.04l.18-.07-.03-.4h-.04l-.58.22-.54.29-.6.25q-.16.07-.22-.07-.08-.15.07-.22l.61-.25.54-.29h.04l.68-.25q-.04-.3-.1-.47l-.62.25-.54.18-.61.15q-.15.06-.18-.11-.07-.15.1-.18l.58-.18.54-.15.65-.25-.1-.18-.12-.18-.6.22-.55.29h-.03l-.62.25q-.14.03-.21-.11-.04-.15.1-.22l.62-.21.54-.29h.03l.54-.22a1 1 0 0 0-.43-.18h-.03l-.58.15-.65.21-.25.08q-.3.42-.32 1.04a18 18 0 0 0-.04 1.9v.22q0 .36.04.76.03.4.18.65.17.36.57.43l.07-.07.65-.22.54-.21.58-.26zm-.9.93.43-.14v-.04h.04l.28-.07q.08-.14.11-.32l-.21.07-.54.21-.58.22-.22.07zm-1.59 6.41-.1-.07-.22-.07v.25l.29-.11zm.76.43-.36-.18-.32.07-.4.15v.07q0 .1.04.22l.25-.08zm14.51-15.7q.1-.06.18 0l.07-.17-.25.07-.5.18-.58.25-.65.29q-.14.07-.21-.07-.08-.15.07-.22l.65-.29.25-.1-.22.07q-.18.06-.21-.11-.07-.15.1-.18l.4-.15q-.03-.14.07-.21l.62-.25q-.08-.04-.08-.11-.06-.15.08-.22l.5-.18-.04-.07q-.03-.15.11-.18l.76-.25.14-.15V10h.04q1.22-1.05 2.63-1.51.96-.4 2.2-.44 1.21-.03 2.3 0h.07l1.65.08q.86 0 1.7.07l.03.03q.87.12 1.95.36 1.11.26 2.12.69 1 .4 1.62 1 .43.44.94 1.63.55 1.14 1 2.59.48 1.44.72 2.73.25 1.26.11 1.88-.04.83-.21 1.65-.18.83-.47 1.62-.36.9-.87 1.8a7 7 0 0 1-1.18 1.59q-.62.6-1.62 1.15a14 14 0 0 1-3.96 1.33h-.18q-.08.03-.11 0h-.04l-.5.22q-.19.07-.22-.08v-.03l-.32.14q-.15.08-.22-.07l-.57.25h-.22l-.61.15q-.15.03-.22-.11l-.4.18q-.14.07-.2-.07-.05-.12.03-.18l-.5.14q-.15.03-.19-.1l-.65.2q-.14.08-.21-.06v-.04l-.07-.07h-.08l-.5.29q-.15.06-.22-.08-.06-.14.08-.21l.5-.29h.04l.4-.14h-.04l-.36.1-.58.18-.61.22q-.15.03-.22-.1v-.04l-.47.18q-.18.03-.21-.11-.04-.1.03-.18l-.5.21q-.18.08-.22-.1-.06-.15.08-.18l.6-.26.76-.32-.32-.07-.61.18-.58.18-.5.29q-.15.07-.22-.08-.07-.14.07-.21l.36-.22-.4.15-.6.18q-.18.06-.22-.11-.03-.15.1-.18l.66-.22.57-.18.3-.1q-.19-.04-.26-.08l-.54.18-.58.25-.6.22q-.15.03-.23-.1-.03-.15.11-.19l.58-.21.61-.3.18-.03-.22-.03-.57.25-.61.18-.54.18q-.15.03-.18-.11-.08-.18.07-.22l.54-.18.61-.14.36-.18-.32-.1-.58.24-.54.18-.61.26q-.15.06-.22-.08t.07-.21l.62-.25V27h.03l.54-.14.4-.18-.18-.11-.22-.11-.65.22-.57.14-.5.29q-.15.07-.22-.07t.07-.22l.5-.29h.04l.61-.18.5-.18h-.03l-.14-.14-.22.1-.65.22-.6.22-.66.21q-.15.05-.21-.1-.05-.19.1-.22l.65-.22.61-.18.76-.28q-.15-.14-.29-.33l-.18.07-.57.15-.58.29-.5.25q-.19.07-.22-.11-.07-.15.07-.22l.5-.21.62-.29H27l.62-.18q-.07-.15-.18-.29l-.26.11h-.03l-.54.22-.65.21-.5.22q-.15.07-.22-.07t.07-.22l.54-.25h.04l.61-.18.54-.22.22-.07-.22-.4-.29.11-.65.22-.57.25-.58.25q-.14.04-.18-.1-.07-.15.07-.22l.54-.22.62-.25.64-.25.22-.07-.18-.33-.36.15-.54.18-.61.25-.61.25q-.15.03-.18-.1-.08-.16.07-.22l.61-.22.61-.25.54-.22.33-.1q-.07-.2-.18-.37l-.26.15-.5.29h-.04l-.57.18-.61.21q-.15.07-.18-.1-.08-.15.07-.19l.61-.21.58-.22.5-.25.25-.14-.14-.36h-.04l-.21.1-.54.22-.62.18-.5.22q-.15.03-.22-.11-.03-.15.11-.22l.5-.18h.04v-.03l.58-.15.5-.25.22-.07-.07-.22-.11-.18-.65.25-.54.18-.65.3q-.14.06-.18-.12-.07-.14.07-.18l.62-.28h.03l.54-.22.8-.29q-.04-.25-.19-.29l-.57.18-.54.3-.65.24q-.15.05-.22-.1-.03-.15.11-.22l.61-.22.54-.28h.04l.54-.22.29-.1q0-.23.03-.44l-.25.07h-.03v.04l-.54.14-.65.22-.54.18q-.15.07-.22-.07-.03-.19.11-.22l.58-.22.6-.18.58-.18.36-.14.08-.58-.44.11-.6.22-.66.21-.6.26q-.16.06-.22-.08-.08-.14.07-.21l.65-.29q.03 0 0 0l.64-.18.65-.22.54-.18.07-.54-.46.15-.5.21-.62.22-.5.22q-.19.06-.22-.11-.07-.15.07-.18l.54-.22.58-.25.54-.18q0-.03 0 0l.57-.18h.04q.03-.3.1-.54h-.03l-.54.29-.65.25-.6.18-.51.29q-.15.07-.22-.07t.07-.22l.54-.29.04-.03.58-.15.6-.25.55-.29q.15-.07.21.04.23-1.26.54-2.52.36-1.26.72-2.27l-.43.22h-.03l-.5.21-.44.18.4-.14.57-.18q.19-.08.22.07.03.18-.1.22l-.59.21-.64.18-.58.22-.54.18q-.15.04-.22-.11-.03-.15.11-.22l.5-.14q-.03-.03-.03-.07-.07-.15.07-.22l.54-.25.58-.22.54-.21zm8.21 15.63q.07-.03.1 0l.66-.36.07-.04h.07q.15 0 .29.04h.29l1.11.07q.58 0 1.15-.03a12 12 0 0 0 3.6-1.19q.9-.5 1.44-1.01a6 6 0 0 0 1.08-1.48q.47-.83.8-1.65.24-.72.4-1.48.17-.79.24-1.55V19q.08-.4-.07-1.23-.15-.85-.43-1.9-.3-1.05-.68-2.1-.36-1.04-.72-1.8a4 4 0 0 0-.65-1.07 4 4 0 0 0-1.48-.9 9 9 0 0 0-1.94-.58l-1.77-.36A19 19 0 0 0 37.41 9l-1.66-.07h-.21a29 29 0 0 0-2.06 0q-1.07.03-1.94.36 0 .07-.07.07l-1.05.47v.03l-.21.04-.1.07q-.52.3-.98.69-.3.31-.72 1.47-.4 1.12-.83 2.67-.4 1.5-.68 3.06-.3 1.5-.36 2.62-.08 1.08.21 1.37l.04.04q0 .03.03.03.44.94.94 1.91.54.97 1.33 1.7v.03q.69.65 1.8 1.04 1.15.36 2.38.62 1.26.24 2.23.5m-8.9-14.36q.2-.08.22.1.08.15-.07.18l-.54.22-.57.18-.58.18-.5.22q-.19.06-.22-.11-.07-.15.07-.18l.54-.22.61-.21.54-.15zm-.24.68q.18-.03.21.1.08.15-.07.22l-.65.22-.54.22-.65.25-.54.29q-.14.06-.21-.08-.08-.14.07-.21l.58-.29.6-.25v-.04l.58-.18zm10.8 8.14-.04.03q-.03.04-.07.04l-.47.21-.07.04h-.07q-.11 0-.3-.04h-.35q-.15 0-.29-.1a1.2 1.2 0 0 1-.68-.65q-.15-.43-.22-.94l-.07-.79v-2.09q0-.57.03-1.15v-.25q0-.62.11-1.23.1-.64.72-.97.18-.1.4-.14l.57-.07q.15-.08.22.07h.04l.25.03q.15.04.32.04.15-.07.22.07.03.08 0 .15.21.14.36.4.14-.04.18.06.03.12-.04.18.1.25.18.58.04.04.04.07.03.08 0 .11l.03.14q.15.7.15 1.4 0 .73-.07 1.45v.03q.03.12-.04.18l-.07.5q.07 0 .07.08.07.15-.1.22 0 .1-.04.25v.25q.06.03.1.1.04.15-.18.26-.04.3-.1.47.06.03.1.1.04.19-.25.26-.1.18-.29.32-.15.14-.28.33m-10.98-7.42q.18-.07.21.1.05.15-.1.19l-.58.21-.61.18-.62.26-.6.25q-.16.03-.22-.11t.1-.22l.58-.21.65-.29h.03l.58-.18zm10.08.25-.58.25-.1.04q-.09.15-.12.4l.4-.22h.04l.64-.18.4-.14-.1-.08-.26-.03q-.15-.04-.25-.04zm.9.43-.54.18-.62.15-.5.29h-.07v.68q-.04.57-.04 1.15v2.02q0 .36.07.72l.08.54q.06.28.36.43.06.03.4.04h.03l.25-.15a1.4 1.4 0 0 0 .4-.4l-.47.22-.54.22q-.15.03-.22-.11-.04-.15.11-.22l.5-.18.54-.25.22-.07q.07-.29-.1-.4l-.51.26h-.04l-.5.14q-.15.07-.22-.07-.04-.18.11-.22l.5-.18.5-.21h.04l.33-.15a.4.4 0 0 1 .03-.18q0-.18.04-.32l-.32.14-.54.25-.62.22q-.18.03-.21-.1-.07-.15.1-.19l.62-.21.5-.26v-.03l.5-.22q.04-.15.04-.32l-.36.21-.6.22v.04l-.59.14q-.18.03-.21-.1-.04-.15.1-.19l.58-.18.58-.21.5-.3h.04l.03-.42-.46.21-.65.25-.54.15q-.15.07-.18-.11-.07-.15.1-.18l.51-.18.61-.22.54-.28h.07q0-.22-.03-.4l-.5.14-.58.26-.54.25q-.15.07-.22-.07t.07-.22l.54-.25v-.04l.62-.21.6-.18-.06-.54-.4.14-.58.22-.54.21q-.14.08-.21-.07-.08-.15.07-.22l.58-.25.57-.18.43-.18a2 2 0 0 0-.1-.47m-11.13.04q.19-.07.22.07.07.19-.07.22l-.54.21-.5.18-.58.22-.5.29q-.16.07-.22-.07-.08-.15.07-.22l.5-.29h.04l.54-.25h.03l.5-.18zm-.07.83q.15-.04.22.1.03.15-.11.22l-.58.18-.57.29-.54.29h-.04l-.58.18q-.14.07-.21-.07-.04-.19.1-.22l.58-.22.54-.25.58-.29h.03zm7.1 11.73-.15-.03-.5.25v.04l-.55.18.47-.15zm16.4-.43-.15.04v.03l-.61.15-.54.29h-.04l-.5.18q-.15.06-.22-.08t.11-.21l.5-.22.54-.25h.04v-.04l.68-.18-.1-.21-.11-.22v.04l-.58.14-.5.25-.65.26q-.15.06-.22-.08-.06-.14.11-.21l.61-.29.5-.22h.04l.62-.18v-.39l-.44.18-.6.14-.62.29q-.15.07-.22-.07-.06-.19.11-.22l.61-.29h.04l.58-.18.54-.18h.03v-.39l-.5.25-1.12.43q-.15.04-.21-.1t.1-.22l1.12-.4.5-.25v-.04l.15-.03v-.25h-.04l-.57.21-.54.18-.54.22q-.15.07-.22-.07-.03-.18.1-.22l.51-.22.58-.21.75-.25v-.3l-.46.22-.5.26h-.04l-.54.18q-.15.03-.22-.11-.03-.18.1-.22l.55-.14.5-.25.65-.33q0-.25-.04-.4l-.54.3-.6.21-.62.22q-.15.06-.22-.08-.03-.14.11-.21l.58-.25h.03l.62-.18.5-.3.22-.06q0-.26-.08-.33h-.03l-.5.18-.58.15-.54.28q-.15.08-.22-.07t.07-.21l.54-.3h.04l.58-.17.5-.18.25-.07q.04-.26-.07-.36l-.61.14-.5.18-.62.22q-.15.07-.21-.08-.05-.14.1-.21l.58-.25h.04l.5-.15.65-.18.21-.07q0-.21-.14-.22h-.04l-.5.18-.65.15-.57.25q-.15.07-.22-.07-.03-.19.1-.22l.58-.25h.04l.61-.18.5-.14.37-.18v-.36l-.18.1-.62.26-.54.28-.54.22q-.14.03-.21-.1-.04-.16.1-.22l.51-.18.54-.3.61-.28.36-.14q0-.19.04-.4l-.36.14-.65.3-.54.24h-.04l-.57.15q-.18.07-.22-.11-.04-.15.11-.18l.58-.18.57-.22.61-.28.5-.18q0-.22.04-.4l-.32.1-.54.26v.04l-.5.14-.62.29q-.14.07-.21-.07-.08-.18.07-.22l.61-.29h.04l.5-.18.5-.25.04-.04.43-.1v-.33l-.32.15-.54.28-.5.22h-.04l-.54.14q-.15.08-.22-.1-.03-.15.11-.18l.58-.18.47-.18.54-.3.5-.24v-.36l-.43.1-.54.18-.61.15-.54.18q-.15.03-.22-.11-.03-.15.1-.22l.58-.14.58-.18.58-.18.5-.14v-.33l-.36.22-.54.18-.54.29-.54.21q-.15.04-.22-.1-.03-.15.11-.22l.5-.18.55-.29h.03l.5-.22.51-.25v-.32l-.43.18h-.04l-.61.18-.61.21-.54.18q-.15.08-.22-.1-.04-.15.11-.18l.58-.22.57-.22.65-.14.54-.25v-.36l-.32.14-.54.25v.04l-.62.14-.57.3q-.15.06-.22-.08t.07-.22l.58-.28.04-.04.6-.14.51-.26v-.03l.43-.15v-.32l-.32.14-.54.22-.61.29-.54.21q-.15.08-.22-.07t.07-.21l.54-.26.65-.25.5-.21.44-.22v-.36l-.29.14-.54.26v.03l-.65.18-.54.22q-.15.04-.21-.11t.1-.22l.58-.18.61-.21.5-.25.4-.18-.03-.36-.18.1h-.04l-.54.15-.65.21-.61.18q-.19.04-.22-.14-.03-.15.11-.18l.65-.18.61-.18.58-.18.29-.1q0-.22-.04-.4l-.25.07-.54.25-.5.22-.62.25q-.15.07-.21-.07-.05-.18.1-.22l.58-.25.5-.25.54-.22h.04l.36-.1v-.3l-.18.11-.65.25-.5.22-.65.25q-.15.04-.22-.1-.03-.15.11-.22l.61-.22.54-.21.62-.3.32-.14-.04-.36-.18.08-.57.21-.54.18-.58.15q-.18.06-.21-.11-.05-.15.1-.18l.62-.18.5-.18.54-.18.32-.15q0-.22-.18-.28l-.54.21-.54.29-.6.29q-.16.07-.22-.07-.08-.18.07-.22l.61-.29.54-.29.54-.21v-.04h.04l.25-.07v-.18q0-.15-.15-.18l-.6.25-.58.22-.58.25q-.15.07-.22-.07-.06-.15.08-.22l.57-.25v-.04h.04l.57-.18.62-.25h.03l.18-.07q0-.1.04-.22l-.43.18-.5.15q-.05.03-.15.03l-.5.15q-.15.07-.22-.11-.04-.15.1-.18l.55-.18.28-.07.36-.18h.04l.54-.18q.07-.26.25-.47.36-.47.87-.5.5-.08 1-.08h.44q1.05-.03 2.08 0 1.05.04 2.1.18.5.04.93.11.47.07.86.47.25.25.36.58.1.3.15.6l.4-.1q.34-.3.75-.5.4-.26.83-.47a5 5 0 0 1 2.26-.65q1.34-.11 2.42-.07l.9.1q.42.04.79.44.31.36.36.79l.03.86-.03.22q0 .5-.04 1.04L67 12.74l-.08 1.01q-.03.5-.1 1.01 0 .18-.04.4 0 .18-.07.36-.07.24-.22.5-.1.22-.32.4a2 2 0 0 1-.69.28q-.36.04-.75.04l-.61.29-1.12.32q-.15.07-.22-.1-.03-.15.11-.19l.58-.18.65-.21h-.08l-.28.03-.58.18-.61.18-.58.22q-.14.07-.18-.07-.03 0-.03-.04l-.3.15q-.17.03-.2-.11-.05-.04-.19-.04l-.54.25q-.15.08-.21-.1v-.08l-.62.18q-.18.04-.21-.14v-.07l-.54.25q-.08.03-.11 0-.1.15-.14.29-.15.32-.15.68l.07.72v.29q.04.15.04.25.04 1.2.04 2.38l.1 2.34v.72q0 .36.04.68V26q0 .46-.04.9-.03.43-.36.8-.36.42-.9.5-.5.1-1.04.1h-.4l-.03.04-.29.11-.61.25q-.15.08-.22-.07t.18-.25h-.25l-.36.14q-.15.08-.22-.07l-.43.1q-.15.08-.21-.1v-.04h-.11l-.4.18q-.15.08-.21-.07v-.07h-.18l-.3.1q-.14.08-.2-.06v-.08h-.22l-.4.11q-.15.08-.22-.07l-.36.14q-.14.08-.21-.07-.04-.07 0-.1h-.11l-.25.07q-.15.07-.22-.08l-.61.22q-.15.07-.22-.07-.03-.15.11-.22l.4-.25-.4.1-.61.19q-.03.03-.07.03l-.47.22q-.15.07-.22-.07v-.04q-.1-.03-.14-.1-.03-.2.1-.22l.58-.22.54-.18zm1.76-.25q.18-.03.21.1v.08h.11l.36-.14q.15-.08.18.07.04 0 .04.03l.47-.14q.18-.03.21.1v.08l.47-.18q.15-.03.22.1v.08l.46-.18q.15-.03.22.1v.08l.47-.18q.15-.03.21.1v.04h.11l.36-.14q.15-.03.22.1v.04l.25-.03.18-.07q.15-.07.22.03h.21l.29-.07q.15-.03.22.07.24 0 .46-.03.04-.04.08-.04a1 1 0 0 0 .36-.22 1 1 0 0 0 .18-.5q.03-.3 0-.54v-.25l-.04-.69v-.72a80 80 0 0 1-.14-4.71q0-.15-.04-.29v-.29l-.04-.86q0-.44.15-.83.25-.7.83-1 .57-.34 1.22-.51a7 7 0 0 1 2.05-.22 30 30 0 0 1 3.1.15q.32 0 .54-.15a1 1 0 0 0 .18-.25l.1-.25q.04-.15.04-.29v-.29q.08-.5.11-.97l.07-1q0-.52.04-1.05l.03-1.08.04-.22q.03-.25 0-.54 0-.29-.18-.47a.6.6 0 0 0-.4-.21l-.5-.04h-.18q-.93-.03-2.16.04-1.22.08-2.09.57v.04a9 9 0 0 0-2.2 1.48q-.1.15-.25.25t-.4.07q-.28 0-.32-.18a1 1 0 0 1 0-.4q.04-.22 0-.28v-.11l-.03-.04q0-.07.03-.1-.03-.3-.1-.55a.7.7 0 0 0-.22-.43.8.8 0 0 0-.61-.25l-.69-.07q-.97-.15-2.01-.18-1.01-.04-2.02 0h-.4l-.39-.04q-.21 0-.43.04l-.04.03-.4.18v.04a.6.6 0 0 0-.17.47q0 .29.03.57v.26q.04.72.04 1.44l.07 1.4q.18 2.13.1 4.6a45 45 0 0 1-.28 4.58q0 .68-.04 1.37l-.07 1.37-.07.64v.65l.1.25.12.22.46.36q.18-.03.22.1v.04zM67.94 8.64q.07 0 .15.04a1 1 0 0 1 .32 0h.25q.17-.04.26-.04.03 0 .07-.04l.54-.14.43-.14.29-.11v-.29l-.47.14-.65.18-.57.22q-.15.07-.22-.07-.03-.18.1-.22l.58-.25h.04l.61-.18.58-.18v-.25l-.43.21-.58.26h-.04l-.54.18q-.14.03-.21-.11-.05-.15.1-.22l.55-.14.57-.29.58-.25v-.36l-.43.18-.58.25-.58.22q-.14.03-.21-.11-.05-.15.1-.22l.55-.18.57-.29h.04l.57-.21V6l-.54.18-.54.25-.64.3q-.15.06-.22-.12-.07-.14.1-.18l.62-.28.54-.3h.04l.64-.2q0-.15.04-.33l-.65.25-.61.29-.58.21q-.14.05-.21-.1-.05-.15.1-.22l.55-.18.64-.29.76-.32q.03-.3-.04-.36l-.64.25-.5.29h-.04l-.62.18q-.18.03-.21-.15-.05-.14.1-.18l.62-.14.5-.29h.04l.6-.29h.05l.18-.07V4l-.58.21-.61.25-.58.26q-.15.06-.21-.08-.08-.14.07-.21l.57-.25v-.04l.65-.22.72-.28q0-.22-.1-.3h-.04l-.61.22-.65.18-.54.18q-.15.08-.22-.07-.03-.18.1-.21l.55-.22h.04l.6-.14.62-.22.32-.14a1 1 0 0 1 .11-.3l-.57.26-.54.18-.54.25q-.15.08-.22-.07t.07-.22l.4-.18q0-.03-.04-.03-.03-.19.1-.22l.66-.21.6-.15.37-.14q.33-.36 1-.54.26-.07.51-.07h.72a14 14 0 0 1 3.78-.04h.94q.14 0 .29.04.15 0 .28.03a1.7 1.7 0 0 1 1.37 1.95v.43l-.03.21v.26q-.04.78-.04 1.58v1.58q-.03.3-.04.65v.04h.69l1.26.07q.64.04 1.3.04.06 0 .17.03.44 0 .83.07.4.07.72.4.22.18.29.43.1.26.14.54l.04.25v.26l-.04.21v1.23q-.03.46-.03.93v1.66q-.14.64-.47.97-.29.33-.94.43l-.03.04h-.47l-.47.03-.61.3-.54.17q-.15.08-.22-.07-.03-.15.11-.22l.61-.25h-.36l-.36.11-.5.18h-.04l-.5.14q-.15.08-.22-.07-.03-.18.11-.21l.4-.15.14-.03h-.29l-.4.1-.32.15V18q0 .46.08.9l.07.68q.03.33.36.5.18.15.43.15h.83a14 14 0 0 1 2.05.15q.5.03.94.1.45.08.82.44t.4.79q.07.4.07.86v1.77q.04.78.04 1.58v.18q0 .43-.04.83-.03.39-.4.75-.32.33-.71.36-.4.08-.83.08h-1.19l-.4.14-.6.25q-.12.08-.19-.03l-.4.1q-.14.08-.21-.1l-.47.14q-.14.07-.18-.07v-.04l-.57.22q-.19.07-.22-.07-.07-.15.07-.22l.61-.22-.28.04-.3.14-.53.26q-.15.06-.22-.08t.07-.21h-.03l-.43.21q-.15.08-.22-.07a.2.2 0 0 1 0-.14l-.47.1q-.03.04-.07.04l-.22-.07q.05 0 0 0l-.54.18q-.18.03-.21-.1-.05-.16.1-.22l.44-.11-.15-.04-.4.15-.6.25q-.15.07-.22-.07a.2.2 0 0 1 0-.15l-.47.15q-.14.06-.18-.11-.07-.15.07-.18l.8-.29q-.04 0-.08-.04h-.07l-.03-.03q-.07-.04-.22.03l-.61.26-.65.18q-.15.03-.18-.11-.03-.19.1-.22l.62-.14.5-.25-.07-.04-.32.14h-.04l-.54.18-.57.26q-.15.06-.22-.08t.07-.21l.58-.25-.5.1-.62.22q-.14.07-.18-.1-.07-.15.1-.19l.59-.21.57-.18.36-.18-.14-.08-.25-.03h-.04l-.58.18-.57.18-.65.25q-.15.07-.22-.07-.03-.15.11-.22l.61-.29h.04l.61-.18.54-.14q-.1-.07-.21-.18l-.44.22-.57.25-.58.25-.54.22q-.15.03-.21-.11-.08-.15.1-.22l.54-.21.54-.22.62-.29.25-.1-.25-.26-.4.15-.5.18-.62.28-.57.3q-.15.06-.22-.12-.07-.14.07-.18l.58-.28.61-.3.54-.2.22-.08-.3-.22-.42.11-.54.29-.65.22-.54.18q-.19.03-.22-.11t.11-.22l.54-.14.61-.25.58-.26h.04l.25-.1-.3-.26-.39.18-.64.22-.58.25-.58.25q-.14.08-.21-.07-.08-.15.07-.21l.58-.3.6-.2v-.04l.62-.18.32-.15q-.15-.15-.28-.32l-.3.14-.57.25-.57.26-.58.28q-.15.08-.22-.07t.08-.21l.6-.3.55-.28.6-.22.19-.1a3 3 0 0 1-.32-.4l-.11.04-.5.25h-.04l-.54.18-.5.25q-.15.07-.22-.07t.03-.22l.54-.25.04-.04.54-.14.5-.25h.04l.07-.04-.07-.14-.07-.18-.65.18-.5.25h-.04l-.58.18q-.14.03-.21-.1-.05-.2.1-.22l.62-.15.5-.25.69-.22-.08-.21a.4.4 0 0 0-.14-.18l-.54.25-.58.18-.54.25q-.14.07-.21-.03-.08-.15.07-.26l.54-.25.04-.03.57-.15.5-.29.19-.07-.08-.43-.54.29-.54.18-.6.21q-.15.05-.19-.1-.07-.15.1-.18l.59-.22.5-.22.54-.25h.04l.07-.03q-.04-.25-.11-.33l-.5.22-.62.25-.57.22q-.15.06-.22-.08t.07-.21l.62-.25.57-.22.54-.22.18-.07v-.21l-.03-.22-.54.22-.54.25-.54.21q-.15.08-.22-.07t.07-.21l.54-.26.58-.21.65-.25q0-.23-.04-.33l-.61.25-.5.26-.55.28q-.14.08-.21-.07-.08-.15.07-.21l.54-.3.5-.24.62-.26.14-.07v-.32l-.54.14-.5.22h-.04l-.61.18q-.15.07-.22-.11-.03-.15.1-.18l.62-.22.54-.18v-.03l.61-.18v-.25l-.6.25-.55.29-.57.25q-.15.03-.22-.11t.1-.22l.55-.21.54-.29.75-.32q0-.26-.03-.36l-.5.25-.55.21-.57.22q-.15.07-.22-.1-.03-.15.1-.19l.55-.21.58-.22.57-.29.04-.03v-.26l-.61.18-.58.22-.61.25q-.15.08-.22-.07t.07-.22l.62-.25.03-.03.58-.18.68-.26v-.28l-.5.25-.54.14-.5.22q-.15.07-.22-.11-.05-.15.1-.18l.5-.22h.05l.5-.18.61-.28v-.33h-.11l-.36.15-.6.25-.58.18q-.15.07-.22-.07-.03-.18.1-.22l.62-.22h-.22l-.43.22-.57.18q-.15.07-.22-.07v-.04l-.4.11q-.03.03-.1 0l-.54.22q-.15.06-.22-.08t-.04-.14l-.6.22q-.16.06-.22-.08t.1-.21l.58-.25.65-.22.21-.1-.1-.12-.11-.07v.04l-.61.14-.58.25-.54.18q-.15.08-.22-.07-.06-.18.11-.21l.54-.22.54-.22h.04v-.03l.57-.15-.07-.21-.07-.22-.61.18-.5.29-.65.25q-.15.08-.22-.07t.1-.22l.62-.25.5-.29h.04l.76-.25-.04-.21-.58.28-1.04.33q-.15.07-.22-.11-.03-.15.11-.18l.54-.18.5-.18.55-.25.18-.07a1 1 0 0 0-.04-.3h-.04l-.6.19-.51.25-.58.25q-.15.07-.21-.1-.08-.15.1-.22l.54-.22.5-.29h.04l.8-.21a1 1 0 0 0-.04-.29l-.54.22-.54.18-.54.21q-.15.08-.22-.07t.08-.22l.54-.21v-.04h.03l.54-.14.5-.25.15-.04a1 1 0 0 0-.04-.29l-.64.29-.5.22h-.04l-.54.14q-.15.07-.22-.1-.03-.15.1-.19l.58-.18.5-.18.62-.29.18-.03-.04-.11v-.14l-.54.25-.6.18-.55.18q-.15.04-.21-.11t.1-.22l.58-.14.58-.22.64-.25q0-.14-.03-.29l-.54.18-.61.26-.65.28q-.15.05-.22-.1t.1-.22l.62-.25.65-.25.65-.22v-.32l-.43.14-.58.25h-.04l-.6.15q-.2.06-.22-.11-.05-.15.1-.18l.65-.18.58-.22.6-.21.08-.18-.25.1-.65.26q-.1.06-.18 0l-.4.18q-.14.06-.21-.08t.07-.21l.58-.29h.03l.5-.18.48-.1.25-.12.18-.1a1 1 0 0 1 .36-.22q.26-.07.57-.18M79.8 27.36h.07l.29-.04h.03l1.7-.03q.86-.04 1.69-.04h.71q.26-.03.4-.18a.6.6 0 0 0 .18-.43q.05-.25 0-.47v-.21q0-.84-.03-1.62V22.5q0-.26-.04-.5 0-.3-.18-.47a1 1 0 0 0-.47-.22 2 2 0 0 0-.5-.07h-.25a14 14 0 0 0-2.02-.14h-.29q-.36 0-.72-.04-.35-.04-.68-.22a1.5 1.5 0 0 1-.65-.79 5 5 0 0 1-.18-1.04 6 6 0 0 1-.07-.94v-2.34q-.07-.1 0-.18-.07-.08-.04-.14v-.04q-.03-.14-.03-.29t.18-.28q.14-.15.29-.15t.28.07q.17.04.26.04.18 0 .32.04h.32l.94.07h.97l.58.03h.6q.4-.1.51-.21.12-.15.18-.54a1 1 0 0 0 0-.36v-1.15q0-.48.04-.94v-1.18q0-.09.04-.19v-.36l-.08-.29a1 1 0 0 0-.14-.25.7.7 0 0 0-.43-.21l-.5-.04h-.22q-.65 0-1.3-.04l-1.26-.07h-.61q-.11 0-.25.04l-.3.03q-.13 0-.28-.18-.15-.15-.14-.28 0-.15.03-.3.04-.13.04-.24 0-.36.04-.62V5.9a35 35 0 0 1 .07-2.01v-.36a1 1 0 0 0 0-.43q-.07-.4-.22-.5-.1-.15-.5-.26a2 2 0 0 0-.4-.04h-.93l-.69-.03a13 13 0 0 0-1.37 0 26 26 0 0 0-1.62.07h-.68q-.22 0-.4.04a1.3 1.3 0 0 0-.57.25q-.11.15-.22.57l-.07.44v.86a54 54 0 0 0-.1 3.35v.68q.03.33.03.65 0 .04-.04.1l-.07.12q-.15.14-.29.14t-.32-.04a1 1 0 0 0-.3 0h-.71q-.36 0-.72.04l-.22-.04h-.21l-.22.04-.29.07a1 1 0 0 0-.25.15q-.1.06-.14.25-.04.15-.04.25v.61q.04.3.04.58.03.57.03 1.19.04.57.04 1.15v.18q-.03.18-.04.4.05.21.18.32.11.1.26.14h.28q.15.04.4-.03a7 7 0 0 1 1.58-.1l.26-.08q.18-.04.32-.04t.29.14q.18.15.18.3 0 .13-.04.28l-.03.29v.61l.07 2.09q.03 1 .1 2.05 0 .75.11 1.51.12.72.44 1.44.75.97 1.9 1.98 1.16 1.01 2.24 1.66.18-.04.21.1v.04l.33.07.21-.03q.19-.04.22.1v.04l.25.07.25-.1q.15-.05.22.1v.08q.1 0 .25.03l.29-.1q.15-.08.21.07v.07l.22.03.29-.14q.15-.07.21.07l.04.04zm-12.42-11.8-.3.14zm7.56 11.76-.11-.07-.5.25zM93.9 1.48q.1-.08.18.03l1.15-.47h.07q.9-.24 1.87-.36a19 19 0 0 1 3.57-.18H102q.42-.03.82.04.4.03.73.36.2.18.28.43.11.26.18.5.04.15.04.26v1.07l.03.58v.94q.04.43.04.9v.1q.04.47-.03.87-.04.4-.4.76a1 1 0 0 1-.72.4q-.4.03-.87.03h-.07q-.18 0-.4-.04l-.25.11-.5.22h-.07 1.01q.42 0 .83.03.39.04.72.4.35.37.36.76.03.4.03.82l-.03.15-.11 1.58-.07 1.59q0 .5-.08.97a1.4 1.4 0 0 1-.4.83q-.34.37-.82.46-.43.08-.94.11l-1.04.11-.5.18h-.04l-.61.18q-.15.07-.22-.07l-.29.1v.98q.04.46.04.93l.07 2.1q.07 1.03.07 2.08v1.19q0 .57-.03 1.15v.47q-.04.43-.04.72v.18q0 .43-.07.86-.07.4-.4.72-.36.36-.79.4-.4.07-.83.07h-.18l-.36.04h-.32l-.43.21-.65.25q-.15.08-.22-.07v-.07l-.36.18q-.14.07-.21-.07-.08-.15.07-.22l.32-.14-.46.14-.54.15q-.15.06-.22-.11v-.04l-.4.18q-.14.08-.21-.07l-.36.1q-.15.08-.22-.06 0-.12-.07-.08h-.04l-.57.18q-.19.08-.22-.07-.03-.1.04-.18l-.5.11q-.12.03-.19-.07l-.5.21q-.15.08-.22-.07a.2.2 0 0 1 0-.14l-.4.18q-.17.07-.2-.07l-.4.14q-.15.07-.22-.07v-.11l-.07-.1q-.05-.15.1-.19l.62-.18.54-.14.18-.11-.07-.07-.15-.11-.54.25-.61.25-.5.18q-.15.08-.22-.07t.1-.21l.51-.22.58-.22.57-.25-.1-.18-.11-.18-.65.29-.54.25H88l-.5.15q-.15.06-.22-.08-.03-.18.11-.21l.5-.18.58-.22.61-.29.15-.03v-.33l-.54.3-.54.24-.54.18q-.15.08-.22-.07-.03-.15.1-.21l.51-.22.54-.22.54-.28.15-.08v-.43l-.54.15-.5.28-.65.3q-.15.03-.22-.12t.1-.21l.62-.25.5-.3h.04l.65-.17v-.4l-.54.25-.54.22h-.04l-.61.18q-.19.03-.22-.1-.03-.2.11-.22l.65-.15.54-.21.54-.26v-.03h.1V24l-.53.25-.58.22h-.03l-.58.18q-.19.03-.22-.1-.03-.16.11-.22l.61-.15.58-.25.5-.22q.04-.03.15-.03v-.36l-.54.21-.5.18-.55.3q-.14.07-.21-.08-.08-.15.07-.22l.54-.28.54-.22.58-.22h.03l.04-.03v-.33l-.61.22-.58.25-.04.04-.5.14q-.15.07-.22-.1-.03-.15.11-.19l.5-.18.58-.25.04-.03.72-.22v-.47l-.58.18-.57.29-.54.18q-.15.07-.22-.07-.03-.18.1-.22l.51-.21.58-.26h.03v-.03l.69-.18v-.37l-.54.22-.58.3h-.03l-.62.17q-.14.08-.21-.07-.05-.18.1-.22l.62-.21.57-.25h.04l.5-.22.18-.04-.03-.28h-.04l-.5.14-.65.22-.61.21q-.15.04-.22-.1-.03-.2.1-.22l.66-.22.6-.18.51-.18.22-.07a1 1 0 0 0-.04-.32h-.03l-.54.14-.54.25h-.04l-.54.18q-.15.04-.21-.1-.05-.2.1-.22l.54-.15.58-.25.54-.18.22-.07V19l-.62.25v.04l-.64.14-.58.22q-.15.03-.22-.11-.03-.15.11-.22l.61-.18.62-.18.57-.25v-.04l.15-.03v-.25l-.65.25-.5.14-.65.29q-.15.07-.22-.1-.07-.15.1-.19l.62-.29h.04l.5-.18.8-.32q0-.11-.04-.25 0-.07-.08-.07l-.64.25-.58.25-.61.29q-.15.07-.22-.07t.07-.22l1.2-.58h.03l.6-.21.23-.11q0-.26-.08-.32h-.03l-.58.21-.65.25-.6.18q-.16.08-.22-.1-.05-.15.1-.18l.62-.22.64-.25.58-.18.18-.11v-.36l-.65.25-.61.29H88l-.6.18q-.16.07-.22-.1-.05-.15.1-.19l.62-.21.64-.26.72-.28v-.33q0-.03-.07-.07l-.61.22-.58.18-.5.18q-.15.07-.22-.08l-.43.15q-.15.07-.21-.07v-.04l-.3.1q-.1.05-.17-.03l-.33.15q-.14.06-.18-.08-.03-.03-.03-.07l-.54.25q-.15.08-.22-.07t.07-.21l.58-.3.58-.24.64-.33a1 1 0 0 1-.28-.14l-.33.1-.54.22-.61.18-.5.22q-.15.07-.22-.07t.07-.22l.54-.25h.04l.57-.15.72-.28-.18-.15-.21-.18-.58.25-.57.22-.54.18q-.15.07-.22-.07-.03-.15.1-.22l.55-.21.57-.18.54-.26q.05 0 .18-.07l-.03-.21-.5.25-.62.21-.57.22q-.15.07-.22-.1-.03-.15.1-.19l.58-.21.62-.26.57-.25v-.32l-.61.21v.04l-.61.14-.61.3q-.15.06-.22-.12-.07-.14.1-.18l.62-.28h.04l.57-.18.58-.22v-.04h.1v-.28l-.57.14-.54.29-.58.21q-.14.08-.21-.07t.1-.21l.55-.22.54-.29h.03l.65-.18v-.29l-.4.11-.57.29-.58.22q-.15.06-.21-.08-.08-.14.1-.21l.54-.25.58-.26h.04v-.03l.46-.11v-.32l-.46.21-.5.22-.58.25q-.15.07-.22-.07-.07-.18.1-.22l.55-.25.54-.25.57-.22v-.21l-.4.1-.5.22h-.03l-.54.18q-.15.03-.22-.1-.03-.2.1-.22l.59-.15.5-.21.5-.15v-.32l-.43.14-.54.25h-.03l-.62.18q-.14.08-.21-.07-.05-.18.1-.21l.62-.22.57-.22.58-.21V9.6q0-.04.04-.07l-.3.07-.5.22-.03.03-.58.18q-.15.08-.21-.1-.05-.15.1-.18l.65-.26.07-.03.54-.25.4-.15q.14-.2.32-.4.18-.17.44-.25l.54-.1h.21q0-.12.1-.18l.55-.22.58-.29h.03l.5-.18.22-.1q0-.22.04-.4l-.61.18-1.26.32q-.15.04-.18-.1-.08-.15.1-.22l.62-.15.64-.18.72-.21.08-.4-.5.18-.66.29-.64.22q-.15.03-.18-.11-.08-.18.1-.22l.62-.18.6-.29.76-.25.08-.36-.5.22-.62.29-.54.28q-.15.08-.22-.07t.08-.21l.57-.3.58-.28.65-.29.14-.03.07-.18-.29.14h-.03l-.65.18-.54.18q-.15.03-.22-.1-.03-.2.11-.22l.58-.18.6-.15.51-.25v-.04l.11-.03.15-.22-.4.15-.58.14-.57.18q-.19.03-.22-.1-.03-.16.1-.22l.48-.11a.2.2 0 0 1-.11-.11q-.03-.15.1-.22l.55-.18.57-.25.22-.1-.58.17q-.14.05-.18-.1-.06-.19.11-.22l.4-.1q.03-.12.1-.15l.47-.18.08-.07.6-.26.04-.03.4-.11.36-.14.58-.26.43-.18.1-.03zm4.79 13.46q.1-.03.18.1h.14l.29-.06q.15-.07.21.03h.22l.29-.07q.08 0 .14.04.26-.04.5-.04l.58-.07q.3-.04.61-.04a.8.8 0 0 0 .58-.29q.19-.18.22-.43l.03-.57v-.22l.07-1.58q.08-.8.11-1.62l.04-.18q.03-.26 0-.47 0-.25-.15-.4a.5.5 0 0 0-.4-.18 2 2 0 0 0-.46 0h-2.92q-.1 0-.28.04l-.3.03a1 1 0 0 1-.28-.1.5.5 0 0 1-.18-.26v-.32q-.03-.15.07-.22v-.1q0-.07.04-.15-.1-.03-.11-.14-.03-.15.22-.22l.07-.1q.29-.4.68-.47.43-.12.87-.11l.72.03h.68l.43.08h1.08q.25 0 .4-.18a.6.6 0 0 0 .18-.4l.03-.5-.03-.18q0-.48-.04-.9v-.94q-.03-.58-.04-1.22v-.51l-.07-.29a.4.4 0 0 0-.14-.21.6.6 0 0 0-.43-.18l-.5-.04-.22.04h-1.04a9 9 0 0 0-1.6 0q-.92.03-1.86.18-.9.1-1.8.32-1.08.4-2.34 1.01-1.23.6-2.05 1.48a5 5 0 0 0-.69 1.62 9 9 0 0 0-.25 1.72l-.04.44v.43l.04.21v.3q0 .14-.18.24-.15.15-.29.15l-.29-.07q-.18-.04-.25-.08h-.03l-.65-.03q-.33 0-.65-.07h-.18a1 1 0 0 0-.4-.04q-.1 0-.28.04l-.26.1-.14.26-.04.21-.03.58v1.58l.07 1.01q0 .1.04.22v.21q0 .26.03.5.04.22.22.4.18.15.4.18.24.04.5 0h1.65l.3-.03q.13 0 .28.14.14.18.14.32v.33l-.03.29q.03.54.03 1.11.04.54.04 1.08.03.61 0 1.23a21 21 0 0 1-.07 1.87q0 .32-.04.65v5.07l.1.29q.08.11.15.25l.33.22h2.77q1.15 0 2.27-.04h.36l.36-.03h.25q.26.03.5 0 .3-.04.47-.22a.6.6 0 0 0 .18-.43q.04-.26.04-.5v-.26q0-.29.03-.68v-.51q.04-.57.04-1.11v-1.15q0-1.08-.07-2.13l-.07-2.09q0-.5-.04-1.04v-1.04q0-.11-.04-.3a1 1 0 0 1-.07-.28q0-.18.15-.32.15-.18.28-.18.15 0 .3.03h.03q.07-.04.29-.07M90.52 3.78q.04-.08.11-.14l-.36.14-.54.25.58-.21zm-2.7 4.57h.15v.04q.24 0 .43.03h.4l.5-.18v-.5l-.54.18-.58.29zm12.28-.43-.4.1h.33q0-.07.07-.1m5.66 4.18q.1-.08.18 0l.07-.18-.25.07-.5.18-.58.25-.65.29q-.15.07-.21-.07-.08-.15.07-.22l.65-.29.25-.1-.22.07q-.18.06-.21-.11-.08-.15.1-.18l.4-.15q-.03-.14.07-.21l.61-.25q-.07-.04-.07-.11-.07-.15.08-.22l.5-.18-.04-.07q-.03-.15.11-.18l.76-.25.14-.15v-.03h.04q1.22-1.05 2.63-1.51.97-.4 2.2-.44 1.21-.03 2.3 0h.07l1.65.08q.86 0 1.7.07l.03.03q.86.12 1.94.36 1.13.26 2.13.69 1 .4 1.62 1 .43.44.94 1.63.55 1.14 1 2.59.47 1.44.72 2.73.25 1.26.11 1.88-.04.83-.21 1.65-.18.83-.47 1.62-.36.9-.87 1.8a7 7 0 0 1-1.19 1.59q-.6.6-1.61 1.15a14 14 0 0 1-3.97 1.33h-.17q-.08.03-.11 0h-.04l-.5.22q-.19.07-.22-.08v-.03l-.32.14q-.15.08-.22-.07l-.58.25h-.21l-.61.15q-.15.03-.22-.11l-.4.18q-.14.07-.21-.07-.04-.12.03-.18l-.5.14q-.15.03-.18-.1l-.65.2q-.15.08-.21-.06v-.04l-.07-.07h-.08l-.5.29q-.15.06-.22-.08t.08-.21l.5-.29h.03l.4-.14h-.03l-.36.1-.58.18-.61.22q-.15.03-.22-.1v-.04l-.47.18q-.18.03-.21-.11-.04-.1.03-.18l-.5.21q-.19.08-.22-.1-.07-.15.07-.18l.62-.26.75-.32-.32-.07-.61.18-.58.18-.5.29q-.15.07-.22-.08-.07-.14.07-.21l.36-.22-.4.15-.6.18q-.19.06-.22-.11-.03-.15.1-.18l.66-.22.57-.18.29-.1q-.18-.04-.25-.08l-.54.18-.58.25-.61.22q-.15.03-.22-.1-.03-.15.11-.19l.58-.21.6-.3.19-.03-.22-.03-.57.25-.61.18-.54.18q-.15.03-.19-.11-.06-.18.08-.22l.54-.18.6-.14.37-.18-.32-.1-.58.24-.54.18-.61.26q-.15.06-.22-.08t.07-.21l.61-.25V27h.04l.54-.14.4-.18-.18-.11-.22-.11-.65.22-.57.14-.5.29q-.15.07-.22-.07t.07-.22l.5-.29h.04l.61-.18.5-.18h-.03l-.14-.14-.22.1-.65.22-.61.22-.65.21q-.15.05-.22-.1-.03-.19.11-.22l.65-.22.61-.18.76-.28q-.15-.14-.29-.33l-.18.07-.58.15-.57.29-.5.25q-.19.07-.22-.11-.08-.15.07-.22l.5-.21.62-.29h.03l.61-.18q-.06-.15-.17-.29l-.26.11h-.03l-.54.22-.65.21-.5.22q-.15.07-.22-.07t.07-.22l.54-.25h.04l.6-.18.55-.22.21-.07-.21-.4-.29.11-.65.22-.57.25-.58.25q-.15.04-.18-.1-.07-.15.07-.22l.54-.22.62-.25.64-.25.22-.07-.18-.33-.36.15-.54.18-.61.25-.61.25q-.15.03-.19-.1-.06-.16.08-.22l.6-.22.62-.25.54-.22.32-.1q-.06-.2-.17-.37l-.26.15-.5.29h-.04l-.57.18-.61.21q-.15.07-.18-.1-.08-.15.07-.19l.6-.21.58-.22.5-.25.26-.14-.14-.36h-.04l-.22.1-.53.22-.62.18-.5.22q-.15.03-.22-.11-.03-.15.11-.22l.5-.18h.04v-.03l.58-.15.5-.25.22-.07-.08-.22-.1-.18-.65.25-.54.18-.65.3q-.15.06-.18-.12-.07-.14.07-.18l.61-.28h.04l.54-.22.8-.29q-.05-.25-.19-.29l-.57.18-.54.3-.65.24q-.15.05-.22-.1-.03-.15.11-.22l.61-.22.54-.28h.04l.54-.22.29-.1q0-.23.03-.44l-.25.07h-.03v.04l-.55.14-.64.22-.54.18q-.15.07-.22-.07-.03-.19.1-.22l.59-.22.6-.18.58-.18.36-.14.08-.58-.44.11-.6.22-.66.21-.6.26q-.16.06-.22-.08-.08-.14.07-.21l.64-.29q.05 0 0 0l.65-.18.65-.22.54-.18.07-.54-.47.15-.5.21-.61.22-.5.22q-.19.06-.22-.11-.08-.15.07-.18l.54-.22.58-.25.54-.18q0-.03 0 0l.57-.18h.04q.03-.3.1-.54h-.03l-.54.29-.65.25-.6.18-.51.29q-.15.07-.22-.07t.07-.22l.54-.29.04-.03.58-.15.6-.25.55-.29q.15-.07.21.04.22-1.26.54-2.52.36-1.26.72-2.27l-.43.22h-.04l-.5.21-.43.18.4-.14.57-.18q.19-.08.22.07.03.18-.11.22l-.58.21-.65.18-.57.22-.54.18q-.15.04-.22-.11-.03-.15.11-.22l.5-.14q-.03-.03-.03-.07-.08-.15.07-.22l.54-.25.58-.22.54-.21zm8.2 15.62q.09-.03.12 0l.64-.36.08-.04h.07q.15 0 .29.04h.28l1.12.07q.57 0 1.15-.03a12 12 0 0 0 3.6-1.19q.9-.5 1.44-1.01a6 6 0 0 0 1.08-1.48q.47-.83.8-1.65.25-.72.4-1.48.17-.79.24-1.55v-.03q.08-.4-.07-1.23-.15-.85-.43-1.9-.3-1.05-.69-2.1-.35-1.04-.72-1.8a4 4 0 0 0-.64-1.07 4 4 0 0 0-1.48-.9 9 9 0 0 0-1.94-.58l-1.77-.36a19 19 0 0 0-1.65-.07l-1.66-.07H114a29 29 0 0 0-2.05 0q-1.08.03-1.94.36 0 .07-.07.07l-1.05.47v.03l-.21.04-.11.07q-.5.3-.97.69-.3.31-.72 1.47-.4 1.12-.83 2.67-.4 1.5-.69 3.06-.28 1.5-.36 2.62-.06 1.08.22 1.37l.04.04q0 .03.03.03.44.94.94 1.91.54.97 1.33 1.7v.03q.69.65 1.8 1.04 1.15.36 2.38.62 1.26.24 2.23.5m-8.88-14.36q.18-.08.21.1.08.15-.07.18l-.54.22-.58.18-.57.18-.5.22q-.19.06-.22-.11-.08-.15.07-.18l.54-.22.61-.21.54-.15zm-.25.68q.17-.03.21.1.07.15-.07.22l-.65.22-.54.22-.65.25-.54.29q-.15.06-.21-.08-.08-.14.07-.21l.58-.29.6-.25v-.04l.58-.18zm10.8 8.14-.04.03q-.04.04-.07.04l-.47.21-.07.04h-.08q-.1 0-.28-.04h-.36q-.15 0-.3-.1a1.2 1.2 0 0 1-.67-.65q-.15-.43-.22-.94l-.07-.79v-2.09q0-.57.03-1.15v-.25q0-.62.11-1.23.1-.64.72-.97.18-.1.4-.14l.57-.07q.15-.08.22.07h.03l.26.03q.14.04.32.04.15-.07.22.07.03.08 0 .15.21.14.36.4.14-.04.18.06.02.12-.04.18.1.25.18.58l.04.07q.03.08 0 .11l.03.14q.15.7.15 1.4 0 .73-.08 1.45v.03q.04.12-.03.18l-.07.5q.07 0 .07.08.07.15-.1.22 0 .1-.04.25v.25q.06.03.1.1.05.15-.18.26-.03.3-.1.47.06.03.1.1.04.19-.25.26-.1.18-.29.32-.15.14-.28.33m-10.98-7.42q.17-.07.21.1.04.15-.1.19l-.58.21-.62.18-.6.26-.62.25q-.15.03-.22-.11-.03-.15.11-.22l.58-.21.65-.29h.03l.58-.18zm10.07.25-.57.25-.1.04q-.09.15-.12.4l.4-.22h.03l.65-.18.4-.14-.1-.08-.26-.03q-.15-.04-.25-.04zm.9.43-.54.18-.6.15-.51.29h-.07v.68q-.04.57-.04 1.15v2.02q0 .36.07.72l.07.54q.07.28.36.43.08.03.4.04h.04l.25-.15a1.4 1.4 0 0 0 .4-.4l-.47.22-.54.22q-.15.03-.22-.11-.03-.15.1-.22l.51-.18.54-.25.22-.07q.07-.29-.1-.4l-.51.26h-.04l-.5.14q-.15.07-.22-.07-.03-.18.1-.22l.51-.18.5-.21h.04l.33-.15a.4.4 0 0 1 .03-.18q0-.18.04-.32l-.33.14-.53.25-.62.22q-.18.03-.21-.1-.08-.15.1-.19l.62-.21.5-.26v-.03l.5-.22q.04-.15.04-.32l-.36.21-.61.22v.04l-.58.14q-.18.03-.21-.1-.05-.15.1-.19l.58-.18.58-.21.5-.3h.04q0-.21.03-.42l-.47.21-.64.25-.54.15q-.15.07-.18-.11-.08-.15.1-.18l.5-.18.62-.22.54-.28h.07q0-.22-.03-.4l-.5.14-.58.26-.54.25q-.15.07-.22-.07t.07-.22l.54-.25v-.04l.61-.21.62-.18-.07-.54-.4.14-.58.22-.54.21q-.15.08-.21-.07-.08-.15.07-.22l.57-.25.58-.18.43-.18a2 2 0 0 0-.1-.47m-11.12.04q.19-.07.22.07.07.19-.08.22l-.53.21-.5.18-.58.22-.5.29q-.16.07-.22-.07-.08-.15.07-.22l.5-.29h.04l.54-.25h.03l.5-.18zm-.07.83q.15-.04.21.1t-.1.22l-.58.18-.57.29-.55.29h-.03l-.58.18q-.15.07-.21-.07-.05-.19.1-.22l.58-.22.54-.25.58-.29h.03zm7.1 11.73-.15-.03-.5.25v.04l-.55.18.47-.15zm17.9.44-.36.18q-.14.06-.21-.08-.08-.14.07-.21l.4-.18h-.22l-.83.25q-.14.07-.21-.07l-.58.18q-.15.07-.21-.07v-.11l-.5.21q-.16.08-.22-.07-.04-.1.07-.18 0-.03.07-.07l.54-.25.58-.22.32-.14-.04-.07q-.03 0-.03-.04l-.3.1-.57.26-.6.22-.58.14q-.19.07-.22-.1-.03-.15.1-.19l.58-.18.61-.18.58-.25.25-.1-.1-.22-.04-.22-.18.04-.54.25-.61.29-.54.21q-.15.08-.22-.07t.07-.22l.54-.25.65-.25.5-.25h.04l.22-.07q0-.25-.11-.3l-.54.19-.54.25h-.04l-.6.22q-.16.03-.22-.11-.05-.19.1-.22l.61-.21.58-.22.5-.22.3-.1q0-.22-.19-.22l-.54.25-.5.18-.54.25q-.15.05-.22-.1t.07-.22l.55-.22.03-.03.5-.15.5-.25v-.03l.3-.11v-.36l-.18.07-.58.22-.61.28h-.04l-.6.22q-.15.03-.23-.1-.03-.16.11-.22l.61-.18.65-.3.54-.24.3-.11q0-.25-.08-.36l-.58.21-.54.22-.57.22q-.15.03-.22-.11-.03-.15.1-.22l.55-.18.58-.25.68-.25q0-.14-.04-.33l-.54.26-.6.18-.62.18q-.19.03-.22-.11t.11-.22l.65-.14.58-.22.6-.25q0-.25-.03-.43l-.5.29-.5.21-.55.22q-.14.07-.21-.07-.05-.18.1-.22l.5-.22.51-.21.54-.29q.04 0 .08-.04 0-.2-.04-.4l-.54.19-.5.25-.58.18q-.15.07-.22-.07-.03-.18.11-.22l.54-.21.5-.22h.04v-.04l.61-.18q0-.17-.03-.32l-.3.1-.5.22-.57.26q-.15.06-.22-.08t.07-.21l.58-.25v-.04l.54-.18.4-.14q0-.18-.04-.33l-.4.15-.6.18-.55.21q-.15.08-.21-.07-.08-.15.1-.22l.54-.21v-.04h.04l.58-.14.5-.22v-.29l-.36.11-.58.25-.54.22q-.14.03-.21-.1-.04-.16.1-.22l.51-.18.61-.26.47-.18v-.5l-.36.1-.5.26-.65.29q-.15.03-.22-.11-.06-.15.11-.22l.61-.25.5-.25h.04l.47-.14.04-.3-.36.15-.61.29-.58.29q-.15.07-.22-.07t.08-.22l.57-.29.65-.29.47-.21q.03-.18.03-.4l-.36.11-.57.22-.65.25q-.15.07-.22-.11-.03-.15.11-.18l.61-.25.62-.25.5-.15v-.4l-.33.19-.5.21-.03.04-.55.14q-.14.04-.21-.1-.03-.15.1-.19l.55-.18.5-.21.5-.29q0-.14.04-.32l-.5.25-.5.25v.04h-.04l-.62.18q-.14.06-.21-.11-.04-.15.1-.18l.62-.22.5-.25.58-.29.1-.03v-.33l-.5.25-.5.22h-.04l-.5.14q-.15.08-.22-.1-.03-.15.11-.18l.5-.18.5-.18.7-.36.03-.22q0-.15-.07-.22l-.54.15-.5.25-.58.25q-.15.08-.22-.07t.07-.22l.58-.25.5-.25h.04l.58-.18.18-.07.03-.4-.18.07-.57.15-.5.29-.66.25q-.15.04-.21-.11t.1-.22l.62-.21.5-.29h.04l.6-.18.3-.07q0-.25-.15-.33l-.5.15-.61.29h-.04l-.58.21q-.14.04-.21-.1-.04-.15.1-.22l.58-.18.65-.29.54-.18.25-.07v-.33l-.18.08-.54.25v.03l-.6.15-.55.18q-.15.04-.22-.11-.03-.15.11-.22l.58-.14.58-.18.5-.25.32-.15q0-.24-.1-.32l-.62.29-.57.14-.58.22q-.15.04-.22-.11-.03-.15.11-.22l.61-.18.55-.18.57-.25.25-.1q0-.26-.14-.37l-.61.18-.61.22-.62.29q-.15.07-.21-.07-.08-.15.07-.22l.61-.29.65-.25.65-.14.21-.08v-.18q0-.06-.1-.07h-.04l-.58.22-.54.18-.5.18q-.15.07-.22-.07-.03-.18.11-.22l.54-.22.5-.18.58-.18.22-.1v-.47l-.22.03-.57.22-.58.18-.54.14q-.15.08-.22-.1-.03-.15.11-.18l.58-.18.54-.18.6-.18.3-.08q0-.25-.18-.28l-.61.18-.65.25-.58.18q-.15.07-.22-.07-.03-.18.11-.22l.58-.22.65-.21.64-.22.26-.07q0-.25-.11-.29h-.04l-.5.15-.61.25h-.04l-.61.18q-.19.03-.22-.15-.03-.14.11-.18l.65-.18.61-.21.5-.18.26-.11v-.4l-.18.11h-.04l-.61.15-.5.28h-.04l-.58.22q-.15.03-.21-.1-.05-.15.1-.22l.58-.18.5-.3h.04l.65-.17.32-.11v-.11q0-.14-.14-.14h-.04l-.54.18-.64.14-.58.25q-.15.05-.22-.1-.03-.15.11-.22l.58-.22h.03l.62-.18.53-.18.3-.1q0-.3-.15-.33l-.58.25v.04l-.64.14-.62.3q-.15.06-.21-.08-.08-.19.1-.22l.62-.28h.03l.62-.18.53-.26.33-.14v-.4l-.22.08-.57.25-.61.21-.58.26q-.15.06-.22-.08-.06-.18.11-.21l.54-.25.65-.26.54-.21h.03l.33-.15v-.36l-.22.08-.57.25-.61.25-.04.04-.58.14q-.18.03-.21-.1-.05-.15.1-.19l.58-.18.65-.25.54-.25h.03l.3-.11V4l-.19.07-.54.21-.64.22-.55.14q-.14.08-.21-.1-.04-.15.1-.18l.58-.18.62-.18.5-.22.32-.14v-.15q0-.18-.14-.21l-.61.25-.54.18-.54.14q-.15.07-.22-.1-.03-.15.1-.19l.58-.18.5-.14.58-.25.3-.11.03-.25-.61.21-.61.18-.58.3q-.15.06-.22-.08t.07-.22l.58-.28.15-.04q0-.07.07-.07l.57-.15.47-.21h.04l.21-.07.26-.36q.35-.33.75-.36.44-.04.86-.04h.19l1.62.07q.83.04 1.65.04.72.03 1.4 0h.26q.42 0 .83.03.43.04.79.36.36.33.4.76.06.4.03.86v.15l-.07 2.05v2.02q0 .46-.04.93v.94l-.07 2.23q0 1.11.03 2.23l.3 4.54q.03.9 0 1.83 0 .9-.08 1.8v.22q-.08 1.77 0 3.67v.18l-.03.87q-.04.39-.4.75-.21.22-.47.29-.25.07-.54.1-.26.05-.5 0h-.47l-.29-.03h-.25a1 1 0 0 0-.33 0l-.5.15q-.15.07-.22-.08 0-.03 0 0l-.64.26q-.15.06-.22-.08v-.1l-.25.14q-.15.07-.22-.07-.06-.1 0-.18l-.54.25q-.14.07-.21-.07-.07-.1.03-.18l-.5.21q-.15.08-.22-.07-.03-.04-.03-.07l-.54.22q-.15.06-.22-.08-.03-.03-.03-.1m1.01-1.12h.11a6 6 0 0 0 .72.04h.29q.15 0 .29-.04.1-.03.18.04h.21q.15 0 .36-.04.07-.03.15.04h.21q.14 0 .33-.04.1-.03.18.07h.21l.33-.03q.15-.08.21.07h.15l.36-.11q.18-.03.21.1v.08h.18l.3-.14q.14-.08.2.07.04 0 .04.03.22-.07.33-.14a.6.6 0 0 0 .18-.43q.03-.26 0-.5v-.22q-.08-1.95 0-3.75v-.21q.07-.9.07-1.77.03-.9 0-1.8l-.29-4.53-.03-2.23.07-2.27V8.7l.03-.93V5.72l.07-2.05.04-.21-.03-.47q0-.25-.19-.4a.6.6 0 0 0-.46-.18 2 2 0 0 0-.5 0h-.26q-.72.04-1.44 0l-1.66-.03-1.65-.08h-.22a2 2 0 0 0-.5 0 .7.7 0 0 0-.43.15 1 1 0 0 0-.22.47q0 .24.04.5v.94a13 13 0 0 1 0 1.36V7.1q-.04.58-.04 1.15v1.73q0 .33.04.61v1.3q.03.61 0 1.22-.04.9-.15 1.84-.1.9-.14 1.84 0 .07-.04.21 0 .22-.03.47v.47q0 .07-.04.1v.55q.04 0 .04.07.03.1-.07.14v.47q.03.04.03.07.07.11-.03.22v.43l.07.07q.03.1-.07.18v.04q0 .21.03.43 0 .04.04.07.02.1-.04.18a30 30 0 0 0 .29 2.81l.07 1.04q.04.54.04 1.05l-.04.25v.43l.07.25.15.3.36.24q.6.04 1.3.04M141.46 7.2l.21-.07.04-.04.4-.14-.15-.18-.43.18-.61.29-.61.25-.55.21q-.14.08-.21-.07-.08-.15.07-.21l.58-.26.57-.21.65-.29.36-.14-.07-.18-.07-.18-.25.1-.04.04-.58.14-.65.22-.53.14q-.15.08-.22-.1-.04-.15.1-.18l.58-.18.61-.18.58-.18.25-.15V5.8q-.03-.18-.18-.22l-.5.18-.58.25-.54.25q-.14.08-.21-.07-.08-.15.07-.21l.54-.26.57-.25.04-.03.54-.15.18-.07q0-.19-.07-.22l-.54.22-.58.25-.57.25q-.15.08-.22-.1-.07-.15.1-.22l.55-.22.61-.25.5-.21.22-.11V4.5q-.03-.11-.14-.07l-.58.18-.5.18-.61.25q-.15.07-.22-.07t.07-.22l.61-.25v-.04h.04l.5-.14.54-.22.25-.1a.6.6 0 0 0-.14-.33l-.61.18-.58.25-.6.22q-.16.07-.22-.07t.1-.22l.58-.25.61-.22v-.03l.8-.18v-.29l-.62.22-.5.18h-.04l-.54.18q-.15.03-.22-.11-.03-.15.11-.22l.58-.14.5-.22.72-.21-.03-.3-.5.26-.55.25-.54.25q-.14.05-.21-.1-.08-.15.07-.22l.54-.22.54-.25.54-.25v-.04h.1v-.25l-.46.25-.58.22-.57.25q-.15.08-.22-.07t.07-.22l.58-.25v-.03h.03l.58-.18.5-.3.08-.03v-.18l-.25.07-.54.22-.58.18q-.15.07-.22-.1-.03-.15.11-.19l.69-.25q0-.07.07-.07l.4-.11.46-.22q.1-.24.33-.43.31-.31.72-.36A5 5 0 0 1 143.5 0h2.7q.68 0 1.37.04h.43q.53 0 1.04.1.51.08.87.5.32.37.32.8.03.4-.03.83v.14L150.1 4q-.04.78 0 1.58v.18q0 .43-.04.83a1.3 1.3 0 0 1-.36.75q-.18.22-.43.33-.25.1-.54.14-.15.04-.29.04-.15-.04-.29-.04l-.21-.03q-.33 0-.65-.04l-.61-.07a.2.2 0 0 1-.15 0h-.1l-.37.18q-.14.07-.21-.07-.08-.07 0-.15l-.65.22q-.15.07-.18-.07 0-.04-.03-.04l-.37.14q-.14.08-.21-.07-.08-.15.07-.21l.22-.08-.22-.03-.5.14q-.15.04-.22-.07l-.47.22q-.14.06-.21-.08v-.1l-.4.18q-.19.06-.22-.08-.03-.03-.03-.07l-.4.11q-.14.07-.18-.07V7.6l-.54.18q-.14.06-.21-.08l-.36.18q-.04.04-.33-.03-.14.07-.21-.11-.05-.15.1-.18l.58-.18zm4-.54q.1-.03.17.04l.3.03.2-.07q.16-.03.22.1.07.04.15.04l.28-.14q.2-.03.22.1.04.05.04.08l.43-.18q.15-.03.22.1v.04l.46-.14q.18-.03.22.1v.04l.47-.14q.14-.03.21.1v.04q0-.03.04-.03.14-.18.14-.43.04-.26 0-.5v-.22q-.03-.83 0-1.66a34 34 0 0 1 .18-2.3 1 1 0 0 0-.14-.47 1 1 0 0 0-.61-.25L147.9.9h-.4a8 8 0 0 0-1.33-.04h-2.91q-.26 0-.5.04a.7.7 0 0 0-.44.14.7.7 0 0 0-.22.44q0 .2.04.43v.18q0 .6.04 1.19l.1 1.58v.36q0 .18.04.36t.1.32q.12.15.19.3l.25.35 1.26.07q.65 0 1.33.04m3.09 21.17-.61.29-.5.25-.66.25q-.14.07-.21-.07t.1-.22l.55-.25-.5.22h-.04l-.58.14q-.15.07-.22-.07l-.5.14q-.15.08-.22-.07v-.04l-.46.26q-.15.06-.22-.08t.07-.21l.54-.25.04-.04.61-.14.29-.15h-.1l-.22.04-.62.25-.6.25-.55.22q-.19.07-.22-.07l-.03-.04-.47.22q-.15.06-.22-.08t.08-.21l.64-.29-.53.18-.54.18q-.18.07-.22-.07-.04-.07-.1-.07l-.59.14q-.18.07-.21-.1v-.04l-.4.18a.2.2 0 0 1-.14 0l-.43.18q-.15.06-.22-.08-.03-.07.04-.14l-.07-.1q-.05-.15.1-.19l.58-.18.5-.18.4-.36-.54.18v.04l-.54.14-.65.29-.61.18q-.18.07-.22-.07-.03-.19.11-.22l.61-.21.61-.26h.04l.54-.18.36-.14-.07-.07q-.07-.1-.07-.15l-.08-.14-.17.07-.65.25-.54.3-.58.24q-.15.08-.22-.07-.06-.15.08-.21l.57-.26.54-.28h.04l.61-.26.22-.07a1 1 0 0 0-.15-.25h-.03l-.54.18-.5.14-.58.3q-.15.06-.22-.08t.07-.22l.58-.28h.03l.5-.18.7-.22v-.22q0-.14-.08-.21l-.5.18-.5.25-.58.22q-.15.06-.22-.08t.1-.21l.55-.22.5-.25h.04l.5-.22h.04l.18-.03q.03-.22-.07-.33l-.58.18-.5.26-.65.28q-.15.08-.22-.07t.11-.21l.61-.3.5-.24.04-.04.76-.22v-.36l-.61.15-.5.29h-.04l-.58.21q-.15.04-.22-.1-.03-.15.11-.22l.58-.18.5-.29h.04l.68-.18q0-.25-.03-.4l-.58.3-.5.24-.54.22q-.15.07-.22-.07t.07-.22l.54-.25.5-.22.58-.28.15-.04v-.25l-.58.25-.5.14-.54.26q-.15.06-.22-.08-.07-.18.07-.21l.54-.25h.04l.5-.18.65-.3v-.28l-.43.22-.54.18-.58.25q-.14.07-.21-.07-.08-.15.07-.22l.57-.25v-.04h.04l.54-.14.54-.29v-.47l-.5.22-.5.25-.58.29q-.15.07-.22-.07t.07-.22l.58-.29.5-.25h.04v-.04l.5-.18q.04 0 .11-.03v-.29l-.5.25-.62.25h-.03l-.54.18q-.15.05-.22-.1-.04-.19.11-.22l.58-.18.6-.22.51-.25v-.03l.11-.04v-.14q.04-.18.04-.3l-.5.26-.51.25-.54.29q-.15.07-.22-.07t.07-.22l.54-.29.5-.25.59-.29q.03 0 .07-.03v-.25l-.44.21v.04l-.6.14-.51.22q-.15.04-.22-.11-.03-.15.11-.22l.5-.18h.04l.58-.18.5-.25.04-.03v-.44l-.54.22-.62.29h-.03l-.58.14q-.18.07-.21-.1-.05-.15.1-.19l.58-.18.65-.25.65-.25q0-.18-.04-.4l-.57.3-.55.17-.64.25q-.15.08-.22-.1-.03-.15.1-.18l.62-.26.58-.21.57-.25q.04-.04.11-.04v-.29l-.43.18-.58.25-.54.22q-.14.07-.21-.07-.08-.15.07-.22l.54-.21.61-.26.5-.21v-.4l-.4.15-.5.21q0 .05 0 0l-.57.22q-.15.07-.22-.11-.03-.15.11-.18l.54-.22.5-.21.04-.04.5-.18q0-.1-.03-.25l-.36.14-.61.3-.58.28q-.15.07-.22-.07-.06-.15.08-.22l.57-.29.65-.28.47-.22q0-.21.03-.43l-.4.18-.64.18-.57.18q-.15.07-.22-.07-.04-.18.1-.22l.62-.22.61-.14.5-.25v-.36l-.5.25-.65.18-.54.22q-.15.03-.21-.11t.1-.22l.58-.18.61-.21.58-.26.03-.03q0-.15.04-.25l-.5.21-.58.22-.61.21q-.15.05-.22-.1-.04-.18.11-.22l.65-.22.54-.18.54-.28.07-.04V13l-.5.25-.62.21h-.03l-.58.18q-.18.05-.21-.1-.05-.15.1-.22l.62-.14.6-.26.66-.28v-.33l-.61.25-.5.22h-.05l-.6.18q-.2.03-.22-.1-.05-.2.1-.22l.65-.18.5-.18.73-.33v-.4l-.54.22-.58.22-.65.25q-.15.07-.21-.07-.08-.15.1-.22l.62-.29h.03l.58-.21.68-.25v-.4l-.5.18-.54.22-.61.21q-.15.04-.22-.1-.03-.15.1-.22l.62-.18.54-.22.5-.21h.11q0-.3-.07-.36l-.5.14-.58.22-.57.21q-.15.08-.22-.07t.1-.22l.55-.25h.03l.58-.18.54-.18.22-.07.1-.22-.47.15-.53.14q0 .04-.04.04l-.61.18q-.15.07-.22-.11-.03-.15.1-.18l.66-.22.5-.18.65-.18.32-.14q.33-.3.72-.32.44-.07.87-.04h.86q1.08.03 2.13 0 1.08-.07 2.16-.18h.14q.47-.03.9 0 .43 0 .8.36.35.36.39.8.03.39 0 .82v.18l-.07 1.33q-.04.65 0 1.33.06 1.41.1 2.85a54 54 0 0 1 0 5.15 38 38 0 0 0-.07 2.34v2.16q0 .42-.07.86-.04.43-.43.76-.33.32-.72.36-.4.07-.83.07m-6.3-1.23.47.4q1.22-.11 2.4-.07h2.42l.72.03h.79q.3 0 .47-.18.19-.18.22-.43t0-.5v-2.23q0-1.2.07-2.34.07-1.2.07-2.38 0-1.37-.07-2.77l-.1-2.81a13 13 0 0 1 0-1.37l.1-1.62v-.47a.6.6 0 0 0-.18-.43q-.15-.14-.43-.14a2 2 0 0 0-.72.03q-1.08.12-2.2.18-1.08.04-2.16 0h-.94a2 2 0 0 0-.53 0 .6.6 0 0 0-.44.18 1 1 0 0 0-.21.47v.72l-.07 1.44v1.4l-.08 1.37q0 .66.04 1.34v.43q.04.21.04.47v.79q.03.4.03.79v.65l-.03.65q0 .64-.04 1.33 0 .64.07 1.3 0 .5.04 1 .03.47.03.94v.5a2 2 0 0 0 0 .76l.07.29zm12.1-14.5q.1-.08.18 0 .03-.12.07-.18l-.25.07-.5.18-.58.25-.65.29q-.15.07-.22-.07t.07-.22l.65-.29.25-.1-.21.07q-.19.06-.22-.11-.06-.15.11-.18l.4-.15q-.04-.14.07-.21l.61-.25q-.07-.04-.07-.11-.08-.15.07-.22l.5-.18q-.03-.04-.03-.07-.04-.15.1-.18l.76-.25.15-.15v-.03h.03q1.23-1.05 2.63-1.51.97-.4 2.2-.44 1.22-.03 2.3 0h.07l1.66.08q.86 0 1.7.07l.03.03q.86.12 1.94.36 1.12.26 2.13.69 1 .4 1.61 1 .44.44.94 1.63.55 1.14 1 2.59.48 1.44.73 2.73.25 1.26.1 1.88-.03.83-.2 1.65-.19.83-.48 1.62-.36.9-.86 1.8a7 7 0 0 1-1.19 1.59q-.6.6-1.62 1.15a14 14 0 0 1-3.96 1.33h-.18q-.07.03-.1 0h-.04l-.5.22q-.2.07-.22-.08v-.03l-.33.14q-.14.08-.21-.07l-.58.25h-.2l-.62.15q-.14.03-.21-.11l-.4.18q-.15.07-.22-.07-.02-.12.04-.18l-.5.14q-.15.03-.18-.1l-.65.2q-.15.08-.22-.06v-.04l-.07-.07h-.07l-.5.29q-.15.06-.22-.08t.07-.21l.5-.29h.04l.4-.14h-.04l-.36.1-.57.18-.62.22q-.14.03-.21-.1v-.04l-.47.18q-.18.03-.22-.11-.03-.1.04-.18l-.5.21q-.19.08-.22-.1-.08-.15.07-.18l.61-.26.76-.32-.33-.07-.6.18-.58.18-.5.29q-.15.07-.22-.08-.08-.14.07-.21l.36-.22-.4.15-.6.18q-.2.06-.22-.11-.05-.15.1-.18l.65-.22.58-.18.28-.1q-.18-.04-.25-.08l-.54.18-.57.25-.62.22q-.14.03-.21-.1-.04-.15.1-.19l.58-.21.62-.3.18-.03-.22-.03-.58.25-.6.18-.55.18q-.14.03-.18-.11-.07-.18.07-.22l.54-.18.62-.14.35-.18-.32-.1-.57.24-.55.18-.6.26q-.16.06-.22-.08-.08-.14.07-.21l.61-.25V27h.04l.54-.14.4-.18-.19-.11-.21-.11-.65.22-.58.14-.5.29q-.15.07-.22-.07t.07-.22l.5-.29h.05l.6-.18.51-.18h-.03l-.15-.14-.21.1-.65.22-.62.22-.64.21q-.15.05-.22-.1-.03-.19.1-.22l.66-.22.6-.18.77-.28q-.15-.14-.3-.33l-.17.07-.58.15-.57.29-.5.25q-.2.07-.22-.11-.08-.15.07-.22l.5-.21.61-.29h.04l.61-.18q-.07-.15-.18-.29l-.25.11h-.04l-.54.22-.65.21-.5.22q-.15.07-.22-.07-.06-.15.08-.22l.54-.25h.03l.62-.18.53-.22.22-.07-.22-.4-.28.11-.65.22-.58.25-.57.25q-.15.04-.18-.1-.08-.15.07-.22l.54-.22.61-.25.65-.25.22-.07-.18-.33-.37.15-.53.18-.62.25-.6.25q-.15.03-.19-.1-.07-.16.07-.22l.62-.22.6-.25.55-.22.32-.1q-.07-.2-.18-.37l-.25.15-.5.29h-.04l-.58.18-.6.21q-.15.07-.19-.1-.07-.15.07-.19l.62-.21.57-.22.5-.25.26-.14-.15-.36h-.03l-.22.1-.54.22-.61.18-.5.22q-.15.03-.22-.11-.04-.15.1-.22l.51-.18h.04v-.03l.57-.15.5-.25.22-.07-.07-.22-.1-.18-.66.25-.54.18-.64.3q-.15.06-.18-.12-.08-.14.07-.18l.61-.28h.04l.54-.22.79-.29q-.04-.25-.18-.29l-.58.18-.54.3-.65.24q-.14.05-.21-.1-.03-.15.1-.22l.62-.22.54-.28h.03l.54-.22.3-.1q0-.23.03-.44l-.25.07h-.04v.04l-.54.14-.65.22-.54.18q-.14.07-.21-.07-.05-.19.1-.22l.58-.22.61-.18.58-.18.36-.14.07-.58-.43.11-.61.22-.65.21-.61.26q-.15.06-.22-.08t.07-.21l.65-.29q.04 0 0 0l.65-.18.65-.22.54-.18.07-.54-.47.15-.5.21-.61.22-.5.22q-.2.06-.22-.11-.08-.15.07-.18l.54-.22.57-.25.54-.18q0-.03 0 0l.58-.18h.03q.04-.3.11-.54h-.03l-.54.29-.65.25-.61.18-.5.29q-.15.07-.22-.07t.07-.22l.54-.29.03-.03.58-.15.61-.25.54-.29q.15-.07.22.04.21-1.26.54-2.52.36-1.26.72-2.27l-.43.22h-.04l-.5.21-.44.18.4-.14.58-.18q.18-.08.21.07.05.18-.1.22l-.58.21-.65.18-.58.22-.53.18q-.15.04-.22-.11-.04-.15.1-.22l.51-.14q-.03-.03-.03-.07-.08-.15.07-.22l.54-.25.57-.22.54-.21zm8.2 15.62q.08-.03.11 0l.65-.36.07-.04h.08q.15 0 .28.04h.3l1.1.07q.6 0 1.16-.03a12 12 0 0 0 3.6-1.19q.9-.5 1.44-1.01a6 6 0 0 0 1.08-1.48q.47-.83.8-1.65.25-.72.39-1.48.18-.79.25-1.55v-.03q.07-.4-.07-1.23-.15-.85-.44-1.9-.28-1.05-.68-2.1-.36-1.04-.72-1.8a4 4 0 0 0-.65-1.07 4 4 0 0 0-1.47-.9 9 9 0 0 0-1.95-.58l-1.76-.36a19 19 0 0 0-1.66-.07l-1.65-.07h-.22a29 29 0 0 0-2.05 0q-1.08.03-1.94.36 0 .07-.08.07l-1.04.47v.03l-.22.04-.1.07q-.5.3-.98.69-.29.31-.72 1.47-.4 1.12-.83 2.67-.4 1.5-.68 3.06-.3 1.5-.36 2.62-.07 1.08.22 1.37l.03.04q0 .03.04.03.43.94.94 1.91.54.97 1.33 1.7v.03q.68.65 1.8 1.04 1.16.36 2.37.62 1.26.24 2.24.5m-8.89-14.36q.19-.08.22.1.07.15-.07.18l-.54.22-.58.18-.57.18-.5.22q-.2.06-.22-.11-.08-.15.07-.18l.54-.22.6-.21.55-.15zm-.25.68q.19-.03.22.1.07.15-.07.22l-.65.22-.54.22-.65.25-.54.29q-.15.06-.22-.08t.07-.21l.58-.29.61-.25v-.04l.58-.18zm10.8 8.14-.03.03q-.04.04-.08.04l-.47.21-.07.04h-.07q-.1 0-.29-.04h-.36q-.15 0-.28-.1a1.2 1.2 0 0 1-.69-.65q-.15-.43-.22-.94l-.07-.79v-2.09q0-.57.04-1.15v-.25q0-.62.1-1.23.12-.64.73-.97.18-.1.4-.14.24-.04.57-.07.15-.08.22.07h.03l.25.03q.14.04.33.04.14-.07.21.07.04.08 0 .15.22.14.36.4.15-.04.18.06.04.12-.03.18.1.25.18.58.03.04.03.07.05.08 0 .11.04.08.04.14.14.7.14 1.4 0 .73-.07 1.45v.03q.04.12-.03.18l-.08.5q.07 0 .07.08.08.15-.1.22 0 .1-.04.25v.25q.07.03.1.1.04.15-.17.26-.04.3-.1.47.06.03.1.1.03.19-.25.26-.1.18-.3.32zm-10.98-7.42q.19-.07.22.1.04.15-.11.19l-.58.21-.6.18-.62.26-.61.25q-.15.03-.22-.11-.03-.15.1-.22l.59-.21.64-.29h.04l.57-.18zm10.08.25-.57.25-.11.04q-.08.15-.11.4l.4-.22h.03l.65-.18.4-.14-.11-.08-.25-.03q-.14-.04-.26-.04zm.9.43-.54.18-.61.15-.5.29h-.08v.68q-.03.57-.03 1.15v2.02q0 .36.07.72l.07.54q.07.28.36.43.07.03.4.04h.03l.25-.15a1.4 1.4 0 0 0 .4-.4l-.47.22-.54.22q-.15.03-.21-.11t.1-.22l.5-.18.55-.25.22-.07q.06-.29-.11-.4l-.5.26h-.04l-.5.14q-.16.07-.22-.07-.05-.18.1-.22l.5-.18.51-.21h.04l.32-.15a.4.4 0 0 1 .04-.18q0-.18.03-.32l-.32.14-.54.25-.61.22q-.19.03-.22-.1-.06-.15.11-.19l.61-.21.5-.26v-.03l.51-.22q.04-.15.04-.32l-.36.21-.61.22v.04l-.58.14q-.19.03-.22-.1-.03-.15.11-.19l.58-.18.57-.21.5-.3h.04q0-.21.04-.42l-.47.21-.65.25-.54.15q-.14.07-.18-.11-.06-.15.11-.18l.5-.18.62-.22.54-.28h.07q0-.22-.04-.4l-.5.14-.58.26-.54.25q-.14.07-.21-.07-.08-.15.07-.22l.54-.25v-.04l.61-.21.61-.18-.07-.54-.4.14-.57.22-.54.21q-.15.08-.22-.07t.08-.22l.57-.25.58-.18.43-.18a2 2 0 0 0-.1-.47m-11.12.04q.18-.07.21.07.08.19-.07.22l-.54.21-.5.18-.58.22-.5.29q-.15.07-.22-.07t.07-.22l.5-.29h.04l.54-.25h.04l.5-.18zm-.08.83q.15-.04.22.1.04.15-.1.22l-.58.18-.58.29-.54.29h-.03l-.58.18q-.15.07-.22-.07-.03-.19.11-.22l.58-.22.54-.25.57-.29h.04zm7.1 11.73-.15-.03-.5.25v.04l-.54.18.47-.15z"/></svg>